<svg width="68" height="44" viewBox="0 0 68 44" fill="none" xmlns="http://www.w3.org/2000/svg">
<path d="M16.2152 22.3454H25.6452C29.6842 22.3744 33.0092 24.6664 33.5182 28.5724H34.5302C35.0422 24.6474 38.3972 22.3434 42.4622 22.3434H51.3362V30.3434H45.1092V31.2144H51.7712C51.8868 31.2144 51.9977 31.1685 52.0795 31.0867C52.1613 31.005 52.2072 30.894 52.2072 30.7784V21.9044C52.2072 21.7888 52.1613 21.6779 52.0795 21.5961C51.9977 21.5144 51.8868 21.4684 51.7712 21.4684H42.4612C38.3962 21.4684 35.0412 19.1684 34.5292 15.2384H33.5172C33.0052 19.1644 29.6502 21.4684 25.5852 21.4684H16.6562C16.6912 18.8744 16.7472 14.7884 16.7662 13.4684H22.9422V12.5964H16.4072C16.386 12.5932 16.3646 12.5915 16.3432 12.5914C16.2222 12.5914 15.9492 12.6344 15.9082 13.0324C15.9082 13.0414 15.9082 13.0504 15.9082 13.0584C15.9082 13.0664 15.9082 13.0984 15.9082 13.1194L15.8892 14.4084C15.8772 15.2404 15.8622 16.3504 15.8472 17.4604L15.7872 21.8994C15.7864 21.9571 15.7971 22.0144 15.8185 22.0679C15.84 22.1215 15.8718 22.1702 15.9122 22.2114C15.9926 22.2928 16.1009 22.3407 16.2152 22.3454Z" fill="#0A337A"/>
<path d="M27.1732 31.4085H40.8732V30.1605H27.1732V31.4085Z" fill="#0A337A"/>
<path d="M20.6222 40.4044H20.6742C21.9302 40.4149 23.1461 39.962 24.0892 39.1324C24.622 38.6625 25.0481 38.0841 25.3389 37.4359C25.6297 36.7877 25.7785 36.0848 25.7752 35.3744V23.9304H24.5272V35.3744C24.53 35.921 24.413 36.4616 24.1845 36.9582C23.9559 37.4547 23.6213 37.8951 23.2042 38.2484C22.4995 38.8429 21.6051 39.165 20.6832 39.1564H20.6212C20.0746 39.1592 19.534 39.0423 19.0374 38.8137C18.5409 38.5851 18.1005 38.2505 17.7472 37.8334C17.1527 37.1287 16.8306 36.2343 16.8392 35.3124V35.2504C16.8306 34.3285 17.1527 33.4341 17.7472 32.7294C18.1005 32.3124 18.541 31.9778 19.0375 31.7492C19.534 31.5206 20.0746 31.4036 20.6212 31.4064H23.1272V30.1604H20.6212C19.9108 30.1571 19.2079 30.3059 18.5597 30.5967C17.9115 30.8875 17.3331 31.3136 16.8632 31.8464C16.0341 32.7894 15.5817 34.0048 15.5922 35.2604V35.3034C15.5817 36.5594 16.0346 37.7753 16.8642 38.7184C17.334 39.2513 17.9125 39.6774 18.5607 39.9682C19.2089 40.259 19.9118 40.4078 20.6222 40.4044Z" fill="#0A337A"/>
<path d="M27.1742 13.6555H40.8742V12.4075H27.1742V13.6555Z" fill="#0A337A"/>
<path d="M25.7752 8.72745C25.7906 7.75973 26.1604 6.83125 26.8145 6.11786C27.4685 5.40446 28.3614 4.95568 29.3242 4.85645C29.8454 4.82086 30.3685 4.89266 30.8608 5.06741C31.3532 5.24216 31.8045 5.51614 32.1867 5.87238C32.5689 6.22861 32.8739 6.6595 33.0828 7.1384C33.2917 7.61729 33.4001 8.13396 33.4012 8.65643V11.0074H34.6452V8.65643C34.6452 7.31417 34.112 6.02691 33.1628 5.07779C32.2137 4.12867 30.9264 3.59546 29.5842 3.59546C28.2419 3.59546 26.9546 4.12867 26.0055 5.07779C25.0564 6.02691 24.5232 7.31417 24.5232 8.65643V19.8804H25.7712L25.7752 8.72745Z" fill="#0A337A"/>
<path d="M50.8342 4.98448C49.8737 4.08306 48.6024 3.58725 47.2852 3.60048C46.3668 3.59496 45.4655 3.84906 44.6852 4.33348C43.9525 4.78695 43.3475 5.41983 42.9276 6.17226C42.5076 6.92468 42.2865 7.77181 42.2852 8.6335V19.8925H43.5332V8.63048C43.5352 7.98253 43.7023 7.3458 44.0186 6.78032C44.3349 6.21484 44.7901 5.73927 45.3412 5.39848C45.932 5.03289 46.6144 4.84221 47.3092 4.84849C48.3014 4.83785 49.2594 5.21078 49.9832 5.88948C50.5315 6.41036 50.9111 7.08368 51.0729 7.82246C51.2347 8.56125 51.1712 9.33158 50.8907 10.0339C50.6103 10.7363 50.1257 11.3385 49.4996 11.7626C48.8734 12.1868 48.1345 12.4135 47.3782 12.4135H44.9292V13.6615H47.3782C48.3839 13.6614 49.3665 13.3599 50.1992 12.7959C51.0318 12.2318 51.6762 11.4311 52.0493 10.4971C52.4223 9.5631 52.5067 8.53873 52.2917 7.55626C52.0768 6.57379 51.5722 5.67833 50.8432 4.98549L50.8342 4.98448Z" fill="#0A337A"/>
<path d="M42.2752 35.2134C42.2644 36.2039 41.8802 37.1537 41.1991 37.873C40.5181 38.5922 39.5906 39.0277 38.6022 39.0924C38.09 39.1113 37.5793 39.0266 37.1005 38.8436C36.6217 38.6605 36.1848 38.3828 35.8158 38.0271C35.4468 37.6713 35.1533 37.2448 34.9529 36.7731C34.7524 36.3013 34.6491 35.794 34.6492 35.2814V32.8064H33.4012V35.2814C33.3994 35.9462 33.5295 36.6047 33.7838 37.2189C34.0382 37.833 34.4119 38.3907 34.8832 38.8594L34.9082 38.8844C35.853 39.8207 37.1301 40.3446 38.4602 40.3414H38.5322C39.8603 40.3177 41.1263 39.7747 42.059 38.8289C42.9917 37.8832 43.5169 36.6097 43.5222 35.2814V23.9344H42.2742L42.2752 35.2134Z" fill="#0A337A"/>
</svg>
