<svg width="170" height="62" viewBox="0 0 170 62" fill="none" xmlns="http://www.w3.org/2000/svg">
<g clip-path="url(#clip0_1_166)">
<path d="M14.1263 31.3431H23.5563C27.5953 31.3721 30.9203 33.6641 31.4293 37.5701H32.4413C32.9533 33.6451 36.3083 31.3411 40.3733 31.3411H49.2473V39.3411H43.0203V40.2121H49.6823C49.7979 40.2121 49.9088 40.1662 49.9906 40.0844C50.0723 40.0026 50.1183 39.8917 50.1183 39.7761V30.9021C50.1183 30.7865 50.0723 30.6756 49.9906 30.5938C49.9088 30.512 49.7979 30.4661 49.6823 30.4661H40.3723C36.3073 30.4661 32.9523 28.1661 32.4403 24.2361H31.4283C30.9163 28.1621 27.5613 30.4661 23.4963 30.4661H14.5673C14.6023 27.8721 14.6583 23.7861 14.6773 22.4661H20.8533V21.5941H14.3183C14.2971 21.5908 14.2757 21.5892 14.2543 21.5891C14.1333 21.5891 13.8603 21.6321 13.8193 22.0301C13.8193 22.0391 13.8193 22.0481 13.8193 22.0561C13.8193 22.0641 13.8193 22.0961 13.8193 22.1171L13.8003 23.4061C13.7883 24.2381 13.7733 25.3481 13.7583 26.4581L13.6983 30.8971C13.6975 30.9548 13.7081 31.0121 13.7296 31.0656C13.751 31.1192 13.7829 31.1679 13.8233 31.2091C13.9037 31.2905 14.012 31.3384 14.1263 31.3431Z" fill="#0A337A"/>
<path d="M25.0842 40.4062H38.7842V39.1582H25.0842V40.4062Z" fill="#0A337A"/>
<path d="M18.5332 49.4021H18.5852C19.8413 49.4126 21.0571 48.9597 22.0002 48.1301C22.5331 47.6602 22.9592 47.0817 23.25 46.4336C23.5408 45.7854 23.6895 45.0825 23.6862 44.3721V32.9281H22.4382V44.3721C22.4411 44.9187 22.3241 45.4593 22.0955 45.9558C21.8669 46.4524 21.5323 46.8928 21.1152 47.2461C20.4105 47.8405 19.5161 48.1627 18.5942 48.1541H18.5323C17.9856 48.1569 17.445 48.0399 16.9485 47.8114C16.4519 47.5828 16.0115 47.2482 15.6582 46.8311C15.0638 46.1264 14.7416 45.232 14.7502 44.3101V44.2481C14.7416 43.3262 15.0638 42.4318 15.6582 41.7271C16.0116 41.31 16.452 40.9755 16.9485 40.7469C17.4451 40.5183 17.9857 40.4013 18.5323 40.4041H21.0382V39.1581H18.5323C17.8218 39.1548 17.1189 39.3036 16.4708 39.5944C15.8226 39.8852 15.2441 40.3113 14.7742 40.8441C13.9452 41.7871 13.4927 43.0025 13.5032 44.2581V44.3011C13.4927 45.5571 13.9456 46.773 14.7752 47.7161C15.2451 48.249 15.8236 48.6751 16.4717 48.9659C17.1199 49.2567 17.8228 49.4054 18.5332 49.4021Z" fill="#0A337A"/>
<path d="M25.0852 22.6532H38.7852V21.4052H25.0852V22.6532Z" fill="#0A337A"/>
<path d="M23.6862 17.7251C23.7016 16.7574 24.0714 15.8289 24.7255 15.1155C25.3795 14.4021 26.2725 13.9534 27.2352 13.8541C27.7565 13.8185 28.2795 13.8903 28.7719 14.0651C29.2642 14.2398 29.7155 14.5138 30.0977 14.8701C30.4799 15.2263 30.7849 15.6572 30.9938 16.1361C31.2027 16.615 31.3111 17.1316 31.3122 17.6541V20.0051H32.5562V17.6541C32.5562 16.3119 32.023 15.0246 31.0739 14.0755C30.1247 13.1263 28.8374 12.5931 27.4952 12.5931C26.1529 12.5931 24.8657 13.1263 23.9165 14.0755C22.9674 15.0246 22.4342 16.3119 22.4342 17.6541V28.8781H23.6822L23.6862 17.7251Z" fill="#0A337A"/>
<path d="M48.7452 13.9822C47.7848 13.0807 46.5134 12.5849 45.1963 12.5982C44.2779 12.5926 43.3765 12.8467 42.5963 13.3312C41.8635 13.7846 41.2586 14.4175 40.8386 15.1699C40.4187 15.9224 40.1976 16.7695 40.1963 17.6312V28.8902H41.4443V17.6282C41.4463 16.9802 41.6134 16.3435 41.9297 15.778C42.246 15.2125 42.7012 14.737 43.2523 14.3962C43.8431 14.0306 44.5255 13.8399 45.2203 13.8462C46.2125 13.8355 47.1705 14.2085 47.8943 14.8872C48.4426 15.408 48.8222 16.0814 48.9839 16.8201C49.1457 17.5589 49.0823 18.3293 48.8018 19.0316C48.5214 19.734 48.0368 20.3362 47.4106 20.7603C46.7845 21.1845 46.0455 21.4112 45.2892 21.4112H42.8403V22.6592H45.2892C46.295 22.6591 47.2776 22.3576 48.1102 21.7935C48.9429 21.2295 49.5873 20.4287 49.9603 19.4948C50.3333 18.5608 50.4178 17.5364 50.2028 16.5539C49.9878 15.5715 49.4833 14.676 48.7543 13.9832L48.7452 13.9822Z" fill="#0A337A"/>
<path d="M40.1862 44.2111C40.1755 45.2016 39.7912 46.1514 39.1102 46.8706C38.4292 47.5899 37.5016 48.0254 36.5133 48.0901C36.001 48.1089 35.4903 48.0243 35.0116 47.8412C34.5328 47.6582 34.0958 47.3805 33.7268 47.0247C33.3578 46.669 33.0643 46.2425 32.8639 45.7708C32.6635 45.299 32.5602 44.7917 32.5603 44.2791V41.8041H31.3123V44.2791C31.3105 44.9439 31.4405 45.6024 31.6949 46.2166C31.9493 46.8307 32.3229 47.3883 32.7943 47.8571L32.8193 47.8821C33.764 48.8184 35.0411 49.3423 36.3712 49.3391H36.4433C37.7714 49.3153 39.0374 48.7724 39.9701 47.8266C40.9027 46.8808 41.428 45.6074 41.4332 44.2791V32.9321H40.1853L40.1862 44.2111Z" fill="#0A337A"/>
<path d="M73.3875 21.8445L68.6655 35.0635L63.9655 21.8746L60.3156 21.8865L66.9755 40.4545L70.3665 40.4435L77.0135 21.8356L73.3875 21.8445Z" fill="#0A337A"/>
<path d="M87.5895 26.3305V27.8305C87.0333 27.2417 86.362 26.7737 85.6173 26.4554C84.8726 26.1372 84.0704 25.9755 83.2605 25.9805C79.6875 25.9915 76.7965 28.9525 76.8105 33.2505C76.8235 37.4705 79.8875 40.4645 83.3835 40.4505C84.1783 40.4577 84.966 40.2991 85.6961 39.9847C86.4261 39.6703 87.0826 39.207 87.6235 38.6245V40.0745L91.0665 40.0635L91.0235 26.3165L87.5895 26.3305ZM83.9995 37.2935C83.4827 37.2851 82.9732 37.1709 82.5022 36.9582C82.0312 36.7455 81.6087 36.4387 81.2607 36.0566C80.9127 35.6745 80.6466 35.2253 80.4787 34.7365C80.3108 34.2477 80.2447 33.7297 80.2845 33.2145C80.2775 30.9625 81.6955 29.1455 83.9745 29.1375C85.0033 29.2115 85.9661 29.6715 86.6701 30.4254C87.374 31.1793 87.767 32.1715 87.7703 33.2029C87.7736 34.2344 87.3869 35.229 86.6878 35.9874C85.9887 36.7458 85.0288 37.212 84.0005 37.2925L83.9995 37.2935Z" fill="#0A337A"/>
<path d="M99.6956 31.7495L98.4246 31.1065C97.6726 30.7205 97.1796 30.4895 97.1786 29.9715C97.1786 29.4275 97.7195 29.1414 98.4185 29.1394C99.3495 29.2252 100.208 29.6769 100.807 30.3955L102.923 28.2405C102.398 27.5321 101.714 26.9578 100.925 26.5643C100.136 26.1709 99.2659 25.9695 98.3846 25.9765C97.8298 25.9359 97.2725 26.0075 96.7461 26.187C96.2196 26.3665 95.7347 26.6502 95.3202 27.0212C94.9057 27.3921 94.5702 27.8428 94.3337 28.3462C94.0972 28.8497 93.9645 29.3956 93.9435 29.9515C93.9485 31.6855 95.0666 33.0295 97.2706 34.1355L98.4376 34.7275C99.3976 35.2165 99.9675 35.6545 99.9695 36.2505C99.9695 36.8715 99.2996 37.3654 98.4456 37.3684C97.3121 37.2368 96.2769 36.6615 95.5666 35.7685L93.4506 38.1045C94.0072 38.8535 94.7362 39.4573 95.5757 39.8648C96.4153 40.2723 97.3407 40.4715 98.2736 40.4455C101.274 40.4365 103.213 38.5915 103.206 36.1325C103.199 34.0955 101.978 32.9075 99.6956 31.7495Z" fill="#0A337A"/>
<path d="M108.998 26.6957L105.555 26.7065L105.598 40.4545L109.041 40.4437L108.998 26.6957Z" fill="#0A337A"/>
<path d="M107.245 20.5986C106.963 20.5922 106.683 20.6415 106.42 20.7436C106.157 20.8457 105.917 20.9987 105.713 21.1937C105.509 21.3888 105.346 21.622 105.232 21.8802C105.119 22.1385 105.057 22.4165 105.051 22.6985C105.04 22.9995 105.089 23.2997 105.194 23.582C105.299 23.8642 105.458 24.1231 105.663 24.3436C105.868 24.5642 106.115 24.7422 106.389 24.8674C106.663 24.9927 106.958 25.0627 107.259 25.0735C107.549 25.0728 107.835 25.015 108.101 24.9036C108.368 24.7922 108.61 24.6293 108.814 24.4243C109.018 24.2192 109.179 23.9759 109.289 23.7085C109.399 23.441 109.455 23.1546 109.453 22.8655C109.458 22.5715 109.404 22.2796 109.296 22.0063C109.187 21.7331 109.025 21.484 108.82 21.2734C108.615 21.0627 108.37 20.8947 108.1 20.7789C107.83 20.6631 107.539 20.6018 107.245 20.5986Z" fill="#0A337A"/>
<path d="M118.008 26.6896L115.963 26.6956L115.947 21.6216L112.504 21.6326L112.52 26.7066L110.76 26.7116L110.769 29.6636L112.529 29.6586L112.563 40.4586L116.006 40.4476L115.972 29.6476L118.017 29.6406L118.008 26.6896Z" fill="#0A337A"/>
<path d="M128.518 26.3616L128.541 33.6886C128.548 36.0186 127.801 37.2886 125.963 37.2956C124.151 37.3016 123.37 36.0096 123.363 33.5496L123.341 26.3776L119.898 26.3885L119.917 32.6796C119.872 33.6485 119.918 34.6194 120.056 35.5796C120.61 38.7886 122.656 40.4646 125.974 40.4546C126.794 40.512 127.618 40.3846 128.383 40.082C129.148 39.7793 129.836 39.309 130.396 38.7056C131.841 37.0956 131.99 35.2316 131.982 32.6946L131.962 26.3516L128.518 26.3616Z" fill="#0A337A"/>
<path d="M155.446 27.8855C154.989 27.3634 154.421 26.9495 153.785 26.6738C153.148 26.3981 152.458 26.2675 151.765 26.2915C150.851 26.2816 149.95 26.5033 149.146 26.936C148.342 27.3686 147.66 27.998 147.165 28.7655C146.803 28.0123 146.231 27.3802 145.517 26.9459C144.803 26.5116 143.979 26.2936 143.144 26.3185C142.331 26.3225 141.528 26.4988 140.788 26.8358C140.048 27.1728 139.388 27.6628 138.852 28.2735V26.6945L135.409 26.7055L135.452 40.4525L138.895 40.4415L138.874 33.7105C138.865 30.8885 140.103 29.4865 141.812 29.4815C143.728 29.4755 144.251 31.1045 144.259 33.7715L144.28 40.4255L147.723 40.4145L147.701 33.6315C147.692 30.8095 148.93 29.4595 150.665 29.4535C152.218 29.4535 153.024 30.5595 153.032 32.8115L153.056 40.3975L156.499 40.3865L156.474 32.3345C156.464 30.5235 156.356 29.0225 155.446 27.8855Z" fill="#0A337A"/>
</g>
<defs>
<clipPath id="clip0_1_166">
<rect width="142.994" height="36.804" fill="white" transform="translate(13.5031 12.598)"/>
</clipPath>
</defs>
</svg>
