<svg width="24" height="24" viewBox="0 0 24 24" fill="none" xmlns="http://www.w3.org/2000/svg">
<path d="M12.2012 20C13.2453 20 14.0996 19.2615 14.0996 18.359H10.3027C10.3027 18.7942 10.5028 19.2116 10.8588 19.5194C11.2148 19.8271 11.6977 20 12.2012 20ZM17.8964 15.0769V10.9744C17.8964 8.45538 16.3397 6.34667 13.625 5.78872V5.23077C13.625 4.54974 12.989 4 12.2012 4C11.4133 4 10.7774 4.54974 10.7774 5.23077V5.78872C8.05312 6.34667 6.5059 8.44718 6.5059 10.9744V15.0769L5.28142 16.1354C4.68342 16.6523 5.10107 17.5385 5.94587 17.5385H18.447C19.2918 17.5385 19.7189 16.6523 19.1209 16.1354L17.8964 15.0769Z" fill="#B2B2B2"/>
<circle cx="17" cy="7" r="4.5" fill="#FF5151" stroke="white"/>
</svg>
