<svg width="117" height="79" viewBox="0 0 117 79" fill="none" xmlns="http://www.w3.org/2000/svg">
<path d="M1 51.5C1 51.5 16.2821 33.2086 30 30.5C40.431 28.4403 46.4876 35.5924 57 34C73.2778 31.5342 76.3958 13.9209 92.5 10.5C101.477 8.59307 115.5 10.5 115.5 10.5" stroke="#FF5151" stroke-width="2" stroke-linecap="round"/>
<path d="M30.5 30.3475C16.7821 33.0562 1.5 51.3475 1.5 51.3475V78.5H116V10.3475C116 10.3475 101.977 8.4406 93 10.3475C76.8958 13.7685 73.7778 31.3817 57.5 33.8475C46.9875 35.4399 40.931 28.2878 30.5 30.3475Z" fill="url(#paint0_linear_1_382)"/>
<path d="M46.28 9.17C46.2133 9.17 46.1567 9.14667 46.11 9.1C46.0633 9.05333 46.04 8.99667 46.04 8.93V6.98H44.12C44.0533 6.98 43.9967 6.95667 43.95 6.91C43.9033 6.86333 43.88 6.80333 43.88 6.73V6.21C43.88 6.13667 43.9033 6.08 43.95 6.04C43.9967 5.99333 44.0533 5.97 44.12 5.97H46.04V4.07C46.04 3.99667 46.0633 3.94 46.11 3.9C46.1567 3.85333 46.2133 3.83 46.28 3.83H46.86C46.9333 3.83 46.99 3.85333 47.03 3.9C47.0767 3.94 47.1 3.99667 47.1 4.07V5.97H49.02C49.0933 5.97 49.15 5.99333 49.19 6.04C49.2367 6.08 49.26 6.13667 49.26 6.21V6.73C49.26 6.80333 49.2367 6.86333 49.19 6.91C49.1433 6.95667 49.0867 6.98 49.02 6.98H47.1V8.93C47.1 8.99667 47.0767 9.05333 47.03 9.1C46.99 9.14667 46.9333 9.17 46.86 9.17H46.28ZM50.108 9.5C50.0413 9.5 49.9846 9.47667 49.938 9.43C49.8913 9.38333 49.868 9.32667 49.868 9.26V8.75C49.868 8.57 49.9513 8.41333 50.118 8.28L51.698 6.71C52.3846 6.17 52.8613 5.75 53.128 5.45C53.4013 5.14333 53.538 4.84333 53.538 4.55C53.538 4.23667 53.4513 3.99 53.278 3.81C53.1113 3.63 52.858 3.54 52.518 3.54C52.1846 3.54 51.9213 3.64 51.728 3.84C51.5346 4.03333 51.4146 4.28667 51.368 4.6C51.348 4.68 51.3113 4.74 51.258 4.78C51.2046 4.81333 51.1446 4.83 51.078 4.83H50.188C50.128 4.83 50.078 4.81 50.038 4.77C49.998 4.73 49.978 4.68333 49.978 4.63C49.9913 4.23667 50.098 3.87 50.298 3.53C50.498 3.18333 50.788 2.90667 51.168 2.7C51.548 2.48667 51.9946 2.38 52.508 2.38C53.0413 2.38 53.4913 2.47333 53.858 2.66C54.2313 2.84 54.5113 3.09 54.698 3.41C54.8846 3.73 54.978 4.09333 54.978 4.5C54.978 4.94667 54.8513 5.35 54.598 5.71C54.3513 6.07 53.9713 6.45667 53.458 6.87L52.038 8.31H54.888C54.9613 8.31 55.018 8.33333 55.058 8.38C55.1046 8.42 55.128 8.47667 55.128 8.55V9.26C55.128 9.32667 55.1046 9.38333 55.058 9.43C55.018 9.47667 54.9613 9.5 54.888 9.5H50.108ZM57.5294 6.02C57.0894 6.02 56.736 5.90333 56.4694 5.67C56.2094 5.43667 56.066 5.12 56.0394 4.72C56.0327 4.60667 56.0294 4.45667 56.0294 4.27C56.0294 4.07 56.0327 3.91 56.0394 3.79C56.066 3.37667 56.206 3.05 56.4594 2.81C56.7127 2.57 57.0694 2.45 57.5294 2.45C57.9894 2.45 58.346 2.57 58.5994 2.81C58.8594 3.05 58.9994 3.37667 59.0194 3.79C59.0327 4.05667 59.0394 4.23 59.0394 4.31C59.0394 4.38333 59.0327 4.52 59.0194 4.72C58.9994 5.12 58.856 5.43667 58.5894 5.67C58.3294 5.90333 57.976 6.02 57.5294 6.02ZM56.7094 9.5C56.6494 9.5 56.5994 9.48333 56.5594 9.45C56.5194 9.41 56.4994 9.36 56.4994 9.3C56.4994 9.26 56.5127 9.22333 56.5394 9.19L61.4694 2.69C61.5227 2.62333 61.5727 2.57667 61.6194 2.55C61.666 2.51667 61.7294 2.5 61.8094 2.5H62.3394C62.406 2.5 62.456 2.52 62.4894 2.56C62.5294 2.59333 62.5494 2.64 62.5494 2.7C62.5494 2.74 62.536 2.77667 62.5094 2.81L57.5794 9.31C57.526 9.37667 57.476 9.42667 57.4294 9.46C57.3827 9.48667 57.3194 9.5 57.2394 9.5H56.7094ZM57.5294 5.28C57.7227 5.28 57.866 5.22333 57.9594 5.11C58.0527 4.99 58.106 4.84333 58.1194 4.67C58.1327 4.44333 58.1394 4.30333 58.1394 4.25C58.1394 4.17667 58.1327 4.04 58.1194 3.84C58.1127 3.66667 58.0594 3.52333 57.9594 3.41C57.866 3.29 57.7227 3.23 57.5294 3.23C57.336 3.23 57.1927 3.29 57.0994 3.41C57.006 3.52333 56.956 3.66667 56.9494 3.84C56.9427 3.94 56.9394 4.07667 56.9394 4.25C56.9394 4.41667 56.9427 4.55667 56.9494 4.67C56.9627 4.84333 57.0127 4.99 57.0994 5.11C57.1927 5.22333 57.336 5.28 57.5294 5.28ZM61.5194 9.56C61.0794 9.56 60.726 9.44 60.4594 9.2C60.1994 8.95333 60.056 8.62667 60.0294 8.22C60.0227 8.10667 60.0194 7.95667 60.0194 7.77C60.0194 7.57667 60.0227 7.42 60.0294 7.3C60.056 6.88667 60.196 6.56 60.4494 6.32C60.7027 6.08 61.0594 5.96 61.5194 5.96C61.9794 5.96 62.336 6.08 62.5894 6.32C62.8494 6.56 62.9894 6.88667 63.0094 7.3C63.0227 7.56667 63.0294 7.73667 63.0294 7.81C63.0294 7.88333 63.0227 8.02 63.0094 8.22C62.9827 8.62667 62.836 8.95333 62.5694 9.2C62.3094 9.44 61.9594 9.56 61.5194 9.56ZM61.5194 8.78C61.7194 8.78 61.8627 8.72333 61.9494 8.61C62.0427 8.49 62.096 8.34667 62.1094 8.18C62.1227 7.95333 62.1294 7.81333 62.1294 7.76C62.1294 7.68667 62.1227 7.55 62.1094 7.35C62.1027 7.17667 62.0494 7.03 61.9494 6.91C61.856 6.79 61.7127 6.73 61.5194 6.73C61.326 6.73 61.1827 6.79 61.0894 6.91C60.996 7.02333 60.9427 7.17 60.9294 7.35C60.9227 7.45 60.9194 7.58667 60.9194 7.76C60.9194 7.92667 60.9227 8.06667 60.9294 8.18C60.9494 8.35333 61.0027 8.49667 61.0894 8.61C61.1827 8.72333 61.326 8.78 61.5194 8.78Z" fill="#FF5151"/>
<path d="M52.5 17.5L54.5 15.5M54.5 15.5L56.5 17.5M54.5 15.5V22.5" stroke="#FF5151" stroke-linecap="round" stroke-linejoin="round"/>
<defs>
<linearGradient id="paint0_linear_1_382" x1="37" y1="-10.5" x2="61.5" y2="52" gradientUnits="userSpaceOnUse">
<stop stop-color="#FF5151"/>
<stop offset="1" stop-color="white" stop-opacity="0"/>
</linearGradient>
</defs>
</svg>
