<svg width="24" height="24" viewBox="0 0 24 24" fill="none" xmlns="http://www.w3.org/2000/svg">
<path d="M4 6.09248C4 5.53752 4.21071 5.00529 4.58579 4.61287C4.96086 4.22046 5.46957 4 6 4H18C18.5304 4 19.0391 4.22046 19.4142 4.61287C19.7893 5.00529 20 5.53752 20 6.09248V14.4624C20 15.0173 19.7893 15.5496 19.4142 15.942C19.0391 16.3344 18.5304 16.5549 18 16.5549H8.414C8.14881 16.5549 7.89449 16.6652 7.707 16.8614L4.854 19.8463C4.78413 19.9196 4.69505 19.9696 4.59804 19.9898C4.50102 20.0101 4.40043 19.9999 4.309 19.9603C4.21757 19.9208 4.1394 19.8538 4.0844 19.7677C4.02939 19.6817 4.00002 19.5805 4 19.477V6.09248ZM9 10.2774C9 9.99995 8.89464 9.73383 8.70711 9.53762C8.51957 9.34142 8.26522 9.23119 8 9.23119C7.73478 9.23119 7.48043 9.34142 7.29289 9.53762C7.10536 9.73383 7 9.99995 7 10.2774C7 10.5549 7.10536 10.821 7.29289 11.0172C7.48043 11.2134 7.73478 11.3237 8 11.3237C8.26522 11.3237 8.51957 11.2134 8.70711 11.0172C8.89464 10.821 9 10.5549 9 10.2774ZM13 10.2774C13 9.99995 12.8946 9.73383 12.7071 9.53762C12.5196 9.34142 12.2652 9.23119 12 9.23119C11.7348 9.23119 11.4804 9.34142 11.2929 9.53762C11.1054 9.73383 11 9.99995 11 10.2774C11 10.5549 11.1054 10.821 11.2929 11.0172C11.4804 11.2134 11.7348 11.3237 12 11.3237C12.2652 11.3237 12.5196 11.2134 12.7071 11.0172C12.8946 10.821 13 10.5549 13 10.2774ZM16 11.3237C16.2652 11.3237 16.5196 11.2134 16.7071 11.0172C16.8946 10.821 17 10.5549 17 10.2774C17 9.99995 16.8946 9.73383 16.7071 9.53762C16.5196 9.34142 16.2652 9.23119 16 9.23119C15.7348 9.23119 15.4804 9.34142 15.2929 9.53762C15.1054 9.73383 15 9.99995 15 10.2774C15 10.5549 15.1054 10.821 15.2929 11.0172C15.4804 11.2134 15.7348 11.3237 16 11.3237Z" fill="#B2B2B2"/>
</svg>
