<svg width="117" height="79" viewBox="0 0 117 79" fill="none" xmlns="http://www.w3.org/2000/svg">
<path d="M1 51.5C1 51.5 16.2821 33.2086 30 30.5C40.431 28.4403 46.4876 35.5924 57 34C73.2778 31.5342 76.3958 13.9209 92.5 10.5C101.477 8.59307 115.5 10.5 115.5 10.5" stroke="#FF5151" stroke-width="2" stroke-linecap="round"/>
<path d="M30.5 30.3475C16.7821 33.0562 1.5 51.3475 1.5 51.3475V78.5H116V10.3475C116 10.3475 101.977 8.4406 93 10.3475C76.8958 13.7685 73.7778 31.3817 57.5 33.8475C46.9875 35.4399 40.931 28.2878 30.5 30.3475Z" fill="url(#paint0_linear_1_399)"/>
<path d="M46.28 9.17C46.2133 9.17 46.1567 9.14667 46.11 9.1C46.0633 9.05333 46.04 8.99667 46.04 8.93V6.98H44.12C44.0533 6.98 43.9967 6.95667 43.95 6.91C43.9033 6.86333 43.88 6.80333 43.88 6.73V6.21C43.88 6.13667 43.9033 6.08 43.95 6.04C43.9967 5.99333 44.0533 5.97 44.12 5.97H46.04V4.07C46.04 3.99667 46.0633 3.94 46.11 3.9C46.1567 3.85333 46.2133 3.83 46.28 3.83H46.86C46.9333 3.83 46.99 3.85333 47.03 3.9C47.0767 3.94 47.1 3.99667 47.1 4.07V5.97H49.02C49.0933 5.97 49.15 5.99333 49.19 6.04C49.2367 6.08 49.26 6.13667 49.26 6.21V6.73C49.26 6.80333 49.2367 6.86333 49.19 6.91C49.1433 6.95667 49.0867 6.98 49.02 6.98H47.1V8.93C47.1 8.99667 47.0767 9.05333 47.03 9.1C46.99 9.14667 46.9333 9.17 46.86 9.17H46.28ZM52.7026 9.61C52.1492 9.61 51.6726 9.51667 51.2726 9.33C50.8792 9.14333 50.5759 8.89667 50.3626 8.59C50.1559 8.28333 50.0459 7.95333 50.0326 7.6V7.58C50.0326 7.52667 50.0526 7.48333 50.0926 7.45C50.1326 7.41667 50.1826 7.4 50.2426 7.4H51.1726C51.3259 7.4 51.4259 7.46667 51.4726 7.6C51.5659 7.89333 51.7192 8.11 51.9326 8.25C52.1526 8.39 52.4092 8.46 52.7026 8.46C53.0759 8.46 53.3859 8.34667 53.6326 8.12C53.8859 7.89333 54.0126 7.57667 54.0126 7.17C54.0126 6.81 53.8859 6.51667 53.6326 6.29C53.3859 6.06333 53.0759 5.95 52.7026 5.95C52.5026 5.95 52.3392 5.97667 52.2126 6.03C52.0859 6.08333 51.9626 6.15667 51.8426 6.25C51.7626 6.31 51.6992 6.35333 51.6526 6.38C51.6126 6.4 51.5626 6.41 51.5026 6.41H50.5826C50.5226 6.41 50.4692 6.39 50.4226 6.35C50.3826 6.30333 50.3626 6.25 50.3626 6.19L50.7126 2.77C50.7192 2.69 50.7459 2.62667 50.7926 2.58C50.8459 2.52667 50.9126 2.5 50.9926 2.5H54.7526C54.8192 2.5 54.8759 2.52333 54.9226 2.57C54.9692 2.61667 54.9926 2.67333 54.9926 2.74V3.41C54.9926 3.47667 54.9692 3.53333 54.9226 3.58C54.8759 3.62667 54.8192 3.65 54.7526 3.65H51.8626L51.7026 5.28C52.0292 5.05333 52.4659 4.94 53.0126 4.94C53.4459 4.94 53.8459 5.03333 54.2126 5.22C54.5859 5.4 54.8826 5.66333 55.1026 6.01C55.3226 6.35 55.4326 6.74667 55.4326 7.2C55.4326 7.68667 55.3192 8.11333 55.0926 8.48C54.8659 8.84 54.5459 9.12 54.1326 9.32C53.7259 9.51333 53.2492 9.61 52.7026 9.61ZM57.7638 6.02C57.3238 6.02 56.9704 5.90333 56.7038 5.67C56.4438 5.43667 56.3004 5.12 56.2738 4.72C56.2671 4.60667 56.2638 4.45667 56.2638 4.27C56.2638 4.07 56.2671 3.91 56.2738 3.79C56.3004 3.37667 56.4404 3.05 56.6938 2.81C56.9471 2.57 57.3038 2.45 57.7638 2.45C58.2238 2.45 58.5804 2.57 58.8338 2.81C59.0938 3.05 59.2338 3.37667 59.2538 3.79C59.2671 4.05667 59.2738 4.23 59.2738 4.31C59.2738 4.38333 59.2671 4.52 59.2538 4.72C59.2338 5.12 59.0904 5.43667 58.8238 5.67C58.5638 5.90333 58.2104 6.02 57.7638 6.02ZM56.9438 9.5C56.8838 9.5 56.8338 9.48333 56.7938 9.45C56.7538 9.41 56.7338 9.36 56.7338 9.3C56.7338 9.26 56.7471 9.22333 56.7738 9.19L61.7038 2.69C61.7571 2.62333 61.8071 2.57667 61.8538 2.55C61.9004 2.51667 61.9638 2.5 62.0438 2.5H62.5738C62.6404 2.5 62.6904 2.52 62.7238 2.56C62.7638 2.59333 62.7838 2.64 62.7838 2.7C62.7838 2.74 62.7704 2.77667 62.7438 2.81L57.8138 9.31C57.7604 9.37667 57.7104 9.42667 57.6638 9.46C57.6171 9.48667 57.5538 9.5 57.4738 9.5H56.9438ZM57.7638 5.28C57.9571 5.28 58.1004 5.22333 58.1938 5.11C58.2871 4.99 58.3404 4.84333 58.3538 4.67C58.3671 4.44333 58.3738 4.30333 58.3738 4.25C58.3738 4.17667 58.3671 4.04 58.3538 3.84C58.3471 3.66667 58.2938 3.52333 58.1938 3.41C58.1004 3.29 57.9571 3.23 57.7638 3.23C57.5704 3.23 57.4271 3.29 57.3338 3.41C57.2404 3.52333 57.1904 3.66667 57.1838 3.84C57.1771 3.94 57.1738 4.07667 57.1738 4.25C57.1738 4.41667 57.1771 4.55667 57.1838 4.67C57.1971 4.84333 57.2471 4.99 57.3338 5.11C57.4271 5.22333 57.5704 5.28 57.7638 5.28ZM61.7538 9.56C61.3138 9.56 60.9604 9.44 60.6938 9.2C60.4338 8.95333 60.2904 8.62667 60.2638 8.22C60.2571 8.10667 60.2538 7.95667 60.2538 7.77C60.2538 7.57667 60.2571 7.42 60.2638 7.3C60.2904 6.88667 60.4304 6.56 60.6838 6.32C60.9371 6.08 61.2938 5.96 61.7538 5.96C62.2138 5.96 62.5704 6.08 62.8238 6.32C63.0838 6.56 63.2238 6.88667 63.2438 7.3C63.2571 7.56667 63.2638 7.73667 63.2638 7.81C63.2638 7.88333 63.2571 8.02 63.2438 8.22C63.2171 8.62667 63.0704 8.95333 62.8038 9.2C62.5438 9.44 62.1938 9.56 61.7538 9.56ZM61.7538 8.78C61.9538 8.78 62.0971 8.72333 62.1838 8.61C62.2771 8.49 62.3304 8.34667 62.3438 8.18C62.3571 7.95333 62.3638 7.81333 62.3638 7.76C62.3638 7.68667 62.3571 7.55 62.3438 7.35C62.3371 7.17667 62.2838 7.03 62.1838 6.91C62.0904 6.79 61.9471 6.73 61.7538 6.73C61.5604 6.73 61.4171 6.79 61.3238 6.91C61.2304 7.02333 61.1771 7.17 61.1638 7.35C61.1571 7.45 61.1538 7.58667 61.1538 7.76C61.1538 7.92667 61.1571 8.06667 61.1638 8.18C61.1838 8.35333 61.2371 8.49667 61.3238 8.61C61.4171 8.72333 61.5604 8.78 61.7538 8.78Z" fill="#FF5151"/>
<path d="M52.5 17.5L54.5 15.5M54.5 15.5L56.5 17.5M54.5 15.5V22.5" stroke="#FF5151" stroke-linecap="round" stroke-linejoin="round"/>
<defs>
<linearGradient id="paint0_linear_1_399" x1="37" y1="-10.5" x2="61.5" y2="52" gradientUnits="userSpaceOnUse">
<stop stop-color="#FF5151"/>
<stop offset="1" stop-color="white" stop-opacity="0"/>
</linearGradient>
</defs>
</svg>
